<svg xmlns="http://www.w3.org/2000/svg" viewBox="0 0 373.29 133.31"><defs><style>.cls-1{fill:#002b49;}.cls-2,.cls-3{fill:#0b6e98;}.cls-3{font-size:10.74px;font-family:ArialNova, Arial Nova;letter-spacing:0.07em;}.cls-4{letter-spacing:-0.01em;}.cls-5{letter-spacing:0.07em;}.cls-6{letter-spacing:0.06em;}</style></defs><title>ceg-coloré</title><g id="Calque_2" data-name="Calque 2"><g id="Calque_1-2" data-name="Calque 1"><path class="cls-1" d="M88,72.23a.29.29,0,0,0-.2-.28l-1.19-.36h0c-1.4-.42-2.8-1-4.22-1.43A14.53,14.53,0,0,0,78,69.35a8.06,8.06,0,0,0-3.92,1,12,12,0,0,0-3.48,3,.29.29,0,0,1-.45,0,12,12,0,0,0-3.48-3,8.09,8.09,0,0,0-3.92-1,14.53,14.53,0,0,0-4.34.81c-1.42.45-2.83,1-4.22,1.43h0L53,72a.27.27,0,0,0-.21.27v0a.3.3,0,0,0,.37.28l1.26-.38c1.42-.43,2.83-1,4.22-1.44A14,14,0,0,1,62.75,70a7.49,7.49,0,0,1,3.64.91,12.11,12.11,0,0,1,3.75,3.41h0l0,0,0,0h0l0,0h.27l0,0h0l0,0,0,0h0a12.11,12.11,0,0,1,3.75-3.41A7.49,7.49,0,0,1,78,70a13.92,13.92,0,0,1,4.15.77c1.4.45,2.81,1,4.23,1.44l1.2.36a.29.29,0,0,0,.37-.28Z"/><path class="cls-1" d="M88,75.57a.28.28,0,0,0-.19-.28L86.68,75c-1.37-.44-2.77-1-4.2-1.46A14.25,14.25,0,0,0,78,72.66a8.42,8.42,0,0,0-4.11,1,12.11,12.11,0,0,0-3.31,2.75.28.28,0,0,1-.44,0,12.11,12.11,0,0,0-3.31-2.75,8.42,8.42,0,0,0-4.11-1,14.3,14.3,0,0,0-4.44.83c-1.43.46-2.83,1-4.2,1.46L53,75.31a.29.29,0,0,0-.2.27v.85a.29.29,0,0,0,.38.28l1.37-.44c1.43-.46,2.83-1,4.21-1.47a13.26,13.26,0,0,1,4-.76,7.08,7.08,0,0,1,3.45.88,11.66,11.66,0,0,1,3.64,3.32h0l0,0,0,0h0l0,0,.06,0,.06,0,.06,0h.4l.06,0,.06,0,.06,0,0,0h0l0,0,0,0h0a11.66,11.66,0,0,1,3.64-3.32A7.08,7.08,0,0,1,78,74a13.37,13.37,0,0,1,4,.76c1.37.44,2.77,1,4.2,1.47l1.32.42a.29.29,0,0,0,.37-.28Z"/><path class="cls-1" d="M88,69.09a.28.28,0,0,0-.24-.29,9.75,9.75,0,0,1-1.16-.25c-1.4-.39-2.81-.93-4.24-1.38a14.73,14.73,0,0,0-4.38-.81,8.78,8.78,0,0,0-1.25.1,7.83,7.83,0,0,0-2.64.88,11.72,11.72,0,0,0-3.44,3h-.45a11.62,11.62,0,0,0-3.45-3,7.93,7.93,0,0,0-3.88-1,11.12,11.12,0,0,0-1.83.17,20.67,20.67,0,0,0-2.55.64c-1.43.45-2.84,1-4.24,1.38l-.41.1c-.28.07-.54.12-.8.16a.29.29,0,0,0-.25.29h0a.3.3,0,0,0,.34.29,10.29,10.29,0,0,0,1.28-.28c1.43-.4,2.85-.94,4.26-1.38a14.26,14.26,0,0,1,4.2-.78,7.42,7.42,0,0,1,3.6.9,11.82,11.82,0,0,1,3.72,3.36h0l0,0,0,0h0l0,0h.27l0,0h0l0,0,0,0h0q.26-.33.51-.63h0a13.79,13.79,0,0,1,1.45-1.49,9.32,9.32,0,0,1,1.76-1.24,7.42,7.42,0,0,1,3.6-.9,14.26,14.26,0,0,1,4.2.78c1.41.44,2.83,1,4.26,1.38a10.57,10.57,0,0,0,1.23.27A.29.29,0,0,0,88,69.1Z"/><path class="cls-1" d="M53.71,50.15H86.3a.54.54,0,1,0,0-1.07H53.71a.54.54,0,1,0,0,1.07Z"/><path class="cls-1" d="M57,47.6H83a.53.53,0,0,0,.22-1l-13-6a.51.51,0,0,0-.45,0l-13,6a.53.53,0,0,0,.22,1Zm13-5.91,10.52,4.84H59.48Z"/><path class="cls-1" d="M58.2,51.71V64.82l1.07-.35V51.71a.54.54,0,1,0-1.07,0Z"/><path class="cls-1" d="M81.81,51.71V64.82l-1.07-.35V51.71a.54.54,0,1,1,1.07,0Z"/><path class="cls-1" d="M62.71,51.71V64.44a9.53,9.53,0,0,1,1.07-.17V51.71a.54.54,0,1,0-1.07,0Z"/><path class="cls-1" d="M77.3,51.71V64.44a9.53,9.53,0,0,0-1.07-.17V51.71a.54.54,0,1,1,1.07,0Z"/><path class="cls-1" d="M67.22,51.71V64.76c.18.08.37.16.55.26l.52.31V51.71a.54.54,0,1,0-1.07,0Z"/><path class="cls-1" d="M72.8,51.71V64.76c-.19.08-.37.16-.56.26l-.52.31V51.71a.54.54,0,0,1,1.08,0Z"/><path class="cls-1" d="M41,40.66H39.38V70a28.58,28.58,0,0,0,4.85,15.29c4.32,6.79,10.66,12.27,15.93,16.09a81.62,81.62,0,0,0,9.51,6l.75.38.75-.38A84.55,84.55,0,0,0,86.2,97,54.88,54.88,0,0,0,96.61,85.28,28.5,28.5,0,0,0,101.46,70V39.67L78,27.41a16.37,16.37,0,0,0-15.08,0L39.38,39.67v1H41l.76,1.46L64.4,30.32a13.06,13.06,0,0,1,12,0L98.18,41.66V70a25.29,25.29,0,0,1-4.34,13.53c-4,6.24-10,11.52-15.08,15.19-2.53,1.84-4.82,3.27-6.46,4.25-.83.49-1.49.86-1.94,1.11l-.52.28-.13.07,0,0,.75,1.46.75-1.46h0a81.84,81.84,0,0,1-14.69-10.2,50.8,50.8,0,0,1-9.58-10.9A25.18,25.18,0,0,1,42.66,70V40.66H41l.76,1.46Z"/><path class="cls-2" d="M136.28,80.65c3.45-1.77,4.53-6.19,4.53-6.19s-5.33-.51-8.55,1.84a11.44,11.44,0,0,0-2.65,3.24A52.68,52.68,0,0,0,130.7,72a16.06,16.06,0,0,0,6.89-3c3-2.26,3.25-6.7,3.25-6.7s-5.24.36-7.91,3.15a11.06,11.06,0,0,0-2,3.66,52.56,52.56,0,0,0-.24-8.05,15.36,15.36,0,0,0,6.08-4c2.5-2.67,1.93-7,1.93-7s-5,1.19-7.07,4.3a10.53,10.53,0,0,0-1.3,3.94,58.36,58.36,0,0,0-1.88-8,14.6,14.6,0,0,0,5.27-4.88c1.93-3,.6-7,.6-7s-4.6,1.94-6.05,5.28a11.22,11.22,0,0,0-.52,4.52,63.91,63.91,0,0,0-3.51-8.06,13.77,13.77,0,0,0,4.29-5.62c1.32-3.18-.7-6.9-.7-6.9s-4.09,2.62-4.88,6.07a11.55,11.55,0,0,0,.39,4.79,64.15,64.15,0,0,0-5.07-7.71,13.23,13.23,0,0,0,3.11-6.09c.7-3.28-1.92-6.55-1.92-6.55s-3.48,3.18-3.62,6.64a11.26,11.26,0,0,0,1.2,4.46,55.89,55.89,0,0,0-6.34-6.57,12.69,12.69,0,0,0,1.91-6.39c.08-3.28-3-6-3-6s-2.78,3.63-2.28,7a11.66,11.66,0,0,0,2.08,4.3c-.78-.64-1.57-1.25-2.36-1.81-1.79-1.36-3.55-2.55-5.26-3.61a12,12,0,0,0,.76-6.62c-.52-3.18-4-5.32-4-5.32s-2,3.94-.94,7.11a12.85,12.85,0,0,0,3.22,4.22,66,66,0,0,0-8.8-4.4,11.81,11.81,0,0,0-.47-6.56C90.41,1.5,86.63,0,86.63,0S85.39,4.13,87,7a13.62,13.62,0,0,0,4.1,3.71C89.32,10,87.72,9.5,86.38,9.1,86,8.63,84,6.42,81.61,6c-1.92-.31-5.16.85-5.16.85a10.25,10.25,0,0,0,4.68,3,7.65,7.65,0,0,0,5.12-.58,61.76,61.76,0,0,1,5.94,2.26,15.07,15.07,0,0,0-5.81,0c-3.29,1-5.44,4.8-5.44,4.8s3.82,1.39,6.79-.07a13.05,13.05,0,0,0,5.16-4.39,66.16,66.16,0,0,1,8.52,4.64A14.54,14.54,0,0,0,96,15.67c-3.49.48-6.37,3.92-6.37,3.92s3.59,2,6.84,1.06a13.69,13.69,0,0,0,5.93-3.46c1.35.9,2.73,1.89,4.12,3,1.24.91,2.47,1.92,3.69,3a14.69,14.69,0,0,0-5.31-1.78c-3.6-.11-7.14,2.88-7.14,2.88s3.22,2.63,6.68,2.21A14.41,14.41,0,0,0,111.09,24a56,56,0,0,1,6.25,7,13.77,13.77,0,0,0-4.65-2.42c-3.6-.71-7.72,1.7-7.72,1.7s2.74,3.18,6.29,3.33a15.15,15.15,0,0,0,7-1.35A63.43,63.43,0,0,1,123,39.85a12.54,12.54,0,0,0-3.9-2.87c-3.48-1.32-8.07.42-8.07.42s2.15,3.65,5.69,4.4a15.57,15.57,0,0,0,7.17-.16,61.19,61.19,0,0,1,3.24,8.21,12.38,12.38,0,0,0-3.36-3.51c-3.24-1.9-8.18-.93-8.18-.93s1.47,4,4.89,5.37a15.86,15.86,0,0,0,7.23,1,55.4,55.4,0,0,1,1.66,8.75,12.63,12.63,0,0,0-2.77-4.22c-2.91-2.45-8.06-2.3-8.06-2.3s.72,4.3,3.91,6.22a15.94,15.94,0,0,0,7.09,2.25,50.34,50.34,0,0,1-.11,8.41,11.88,11.88,0,0,0-1.91-4.36c-2.46-2.95-7.66-3.65-7.66-3.65s-.09,4.44,2.76,6.89a15.7,15.7,0,0,0,6.6,3.42,51.32,51.32,0,0,1-1.51,8,11.81,11.81,0,0,0-1.1-4.65c-1.91-3.37-7-5-7-5S118.63,76,121,79a15.79,15.79,0,0,0,6,4.52,57,57,0,0,1-2.89,7.25,11.29,11.29,0,0,0-.25-4.56c-1.29-3.72-6.12-6.15-6.12-6.15s-1.76,4.32.09,7.67a15.5,15.5,0,0,0,5,5.48,62.17,62.17,0,0,1-4,6.51,11.07,11.07,0,0,0,.54-4.4c-.59-4-5-7.19-5-7.19s-2.59,4-1.36,7.72a15.5,15.5,0,0,0,4,6.31,65.41,65.41,0,0,1-5.3,6,12.19,12.19,0,0,0,1.48-4.56c.14-4.06-3.67-8-3.67-8s-3.35,3.63-2.81,7.53a15.25,15.25,0,0,0,2.89,7.08,55.49,55.49,0,0,1-6.41,5,12.75,12.75,0,0,0,2.4-4.4c.91-4.06-2.16-8.71-2.16-8.71s-4.06,3.09-4.25,7.1a15.44,15.44,0,0,0,1.56,7.57c-.84.49-1.67,1-2.51,1.38-1.51.84-3,1.57-4.43,2.24a12.93,12.93,0,0,0,3-3.78c1.67-3.94-.53-9.12-.53-9.12s-4.67,2.43-5.61,6.43a15.66,15.66,0,0,0,.11,7.78,66.56,66.56,0,0,1-7.34,2.46,13.39,13.39,0,0,0,3.65-3.26c2.43-3.67,1.18-9.25,1.18-9.25s-5.14,1.66-6.84,5.52A16.21,16.21,0,0,0,80.05,125a44.81,44.81,0,0,1-7.25.85,27.74,27.74,0,0,1-5.36-.06,50,50,0,0,1-6.65-.79,16.09,16.09,0,0,0-1.36-7.81c-1.7-3.86-6.84-5.52-6.84-5.52s-1.24,5.58,1.18,9.25a13.39,13.39,0,0,0,3.65,3.26,66.56,66.56,0,0,1-7.34-2.46,15.75,15.75,0,0,0,.12-7.78c-1-4-5.61-6.43-5.61-6.43s-2.21,5.18-.54,9.12a13,13,0,0,0,3,3.78c-1.45-.67-2.93-1.4-4.44-2.24-.83-.42-1.67-.89-2.5-1.38a15.46,15.46,0,0,0,1.55-7.57c-.19-4-4.25-7.1-4.25-7.1s-3.07,4.65-2.16,8.71a12.92,12.92,0,0,0,2.4,4.4,56.27,56.27,0,0,1-6.4-5,15.38,15.38,0,0,0,2.88-7.08c.55-3.9-2.81-7.53-2.81-7.53s-3.8,4-3.66,8a12,12,0,0,0,1.48,4.56,64,64,0,0,1-5.3-6,15.72,15.72,0,0,0,4-6.31c1.22-3.68-1.36-7.72-1.36-7.72s-4.39,3.24-5,7.19A11.25,11.25,0,0,0,22,99.7a62.1,62.1,0,0,1-4-6.51,15.49,15.49,0,0,0,5-5.48c1.85-3.35.09-7.67.09-7.67S18.31,82.47,17,86.19a11.65,11.65,0,0,0-.25,4.56,57,57,0,0,1-2.89-7.25,15.71,15.71,0,0,0,6-4.52c2.39-2.94,1.47-7.39,1.47-7.39s-5.09,1.58-7,5a11.81,11.81,0,0,0-1.09,4.65,51.33,51.33,0,0,1-1.52-8,15.78,15.78,0,0,0,6.61-3.42C21.12,67.36,21,62.92,21,62.92s-5.2.7-7.66,3.65a11.89,11.89,0,0,0-1.9,4.35,50.22,50.22,0,0,1-.12-8.4,16,16,0,0,0,7.1-2.25c3.18-1.92,3.9-6.22,3.9-6.22s-5.15-.15-8,2.3a12.66,12.66,0,0,0-2.78,4.22,55.4,55.4,0,0,1,1.66-8.75,15.92,15.92,0,0,0,7.24-1c3.41-1.33,4.89-5.37,4.89-5.37s-4.94-1-8.19.93a12.52,12.52,0,0,0-3.36,3.51A61.19,61.19,0,0,1,17,41.64a15.58,15.58,0,0,0,7.17.16c3.54-.75,5.69-4.4,5.69-4.4s-4.59-1.74-8.07-.42a12.5,12.5,0,0,0-3.89,2.87,61,61,0,0,1,4.68-7.61,15.1,15.1,0,0,0,7,1.35c3.55-.15,6.29-3.33,6.29-3.33s-4.11-2.41-7.71-1.7A13.6,13.6,0,0,0,23.51,31a56,56,0,0,1,6.24-7,14.47,14.47,0,0,0,6.62,2.51c3.46.42,6.68-2.21,6.68-2.21s-3.54-3-7.14-2.88a14.64,14.64,0,0,0-5.3,1.78c1.21-1.09,2.44-2.1,3.68-3q2.1-1.64,4.12-3a13.76,13.76,0,0,0,5.93,3.46c3.26,1,6.84-1.06,6.84-1.06s-2.88-3.44-6.37-3.92a14.48,14.48,0,0,0-5.37.85A65.51,65.51,0,0,1,48,11.88a12.91,12.91,0,0,0,5.15,4.39c3,1.46,6.8.07,6.8.07s-2.16-3.78-5.45-4.8a15,15,0,0,0-5.8,0,60.72,60.72,0,0,1,5.93-2.26,7.65,7.65,0,0,0,5.12.58,10.25,10.25,0,0,0,4.68-3S61.16,5.73,59.23,6c-2.4.38-4.37,2.59-4.77,3.06-1.34.4-2.93.92-4.73,1.62A13.5,13.5,0,0,0,53.83,7c1.62-2.88.38-7,.38-7s-3.77,1.5-4.84,4.49a11.77,11.77,0,0,0-.46,6.56,64.8,64.8,0,0,0-8.8,4.4,13,13,0,0,0,3.21-4.22c1.09-3.17-.94-7.11-.94-7.11s-3.51,2.14-4,5.32a12.14,12.14,0,0,0,.75,6.62c-1.71,1.06-3.47,2.25-5.25,3.61-.8.56-1.58,1.17-2.37,1.81a11.69,11.69,0,0,0,2.09-4.3c.49-3.36-2.28-7-2.28-7s-3.13,2.74-3.05,6a12.69,12.69,0,0,0,1.91,6.39,55,55,0,0,0-6.33,6.57A11.24,11.24,0,0,0,25,24.71c-.13-3.46-3.61-6.64-3.61-6.64s-2.63,3.27-1.92,6.55a13.13,13.13,0,0,0,3.11,6.09,64.21,64.21,0,0,0-5.08,7.71,11.55,11.55,0,0,0,.39-4.79C17.12,30.18,13,27.56,13,27.56s-2,3.72-.69,6.9a13.6,13.6,0,0,0,4.29,5.62,61.14,61.14,0,0,0-3.51,8.06,11,11,0,0,0-.53-4.52c-1.44-3.34-6-5.28-6-5.28s-1.33,4.07.6,7a14.53,14.53,0,0,0,5.28,4.88,55.59,55.59,0,0,0-1.88,8,10.66,10.66,0,0,0-1.31-3.94c-2.07-3.11-7.07-4.3-7.07-4.3s-.56,4.32,1.93,7a15.36,15.36,0,0,0,6.08,4,51.33,51.33,0,0,0-.23,8.05,11.08,11.08,0,0,0-2-3.66C5.24,62.64,0,62.28,0,62.28S.24,66.72,3.25,69a16.06,16.06,0,0,0,6.89,3,51.33,51.33,0,0,0,1.1,7.57A11.3,11.3,0,0,0,8.58,76.3C5.37,74,0,74.46,0,74.46s1.08,4.42,4.53,6.19A16.86,16.86,0,0,0,12,82.51a57.27,57.27,0,0,0,2.58,7.25,12.15,12.15,0,0,0-3.33-2.86c-3.67-1.83-8.93-.43-8.93-.43S4.22,90.73,8,91.94a17.22,17.22,0,0,0,7.83.62,63.84,63.84,0,0,0,3.89,6.79A12.51,12.51,0,0,0,15.81,97C11.78,95.75,6.75,98,6.75,98s2.73,4,6.78,4.54a17.61,17.61,0,0,0,8-.68,65.32,65.32,0,0,0,4.79,5.84,12.63,12.63,0,0,0-4-1.52c-4.28-.56-8.91,2.58-8.91,2.58s3.49,3.52,7.67,3.43a17.73,17.73,0,0,0,7.76-2,57.94,57.94,0,0,0,5.52,4.77,12.6,12.6,0,0,0-4-.73c-4.41.15-8.46,4.08-8.46,4.08s4.17,3,8.35,2.17a17.85,17.85,0,0,0,7.36-3.2c1.34.86,2.67,1.65,4,2.34.85.48,1.68.92,2.51,1.34a13.13,13.13,0,0,0-4.31-.1c-4.4.89-7.74,5.51-7.74,5.51s4.75,2.28,8.8.79a17.78,17.78,0,0,0,6.85-4.49,69.48,69.48,0,0,0,6.87,2.6,13.22,13.22,0,0,0-4.27.62c-4.25,1.62-6.73,6.82-6.73,6.82s5.2,1.5,9-.67a17.45,17.45,0,0,0,6-5.64l.57.14a52.1,52.1,0,0,0,20.7.43c.76-.17,1.56-.35,2.42-.57a17.39,17.39,0,0,0,6,5.64c3.8,2.17,9,.67,9,.67s-2.48-5.2-6.73-6.82a13.22,13.22,0,0,0-4.27-.62,70.56,70.56,0,0,0,6.88-2.6,17.72,17.72,0,0,0,6.84,4.49c4.05,1.49,8.8-.79,8.8-.79s-3.34-4.62-7.73-5.51a13.18,13.18,0,0,0-4.32.1c.83-.42,1.67-.86,2.51-1.34,1.34-.69,2.68-1.48,4-2.34a17.85,17.85,0,0,0,7.36,3.2c4.19.79,8.35-2.17,8.35-2.17s-4-3.93-8.46-4.08a12.49,12.49,0,0,0-4,.73,60.51,60.51,0,0,0,5.52-4.77,17.68,17.68,0,0,0,7.75,2c4.18.09,7.67-3.43,7.67-3.43s-4.62-3.14-8.9-2.58a12.68,12.68,0,0,0-4,1.52,65.32,65.32,0,0,0,4.79-5.84,17.64,17.64,0,0,0,8,.68c4.05-.58,6.77-4.54,6.77-4.54s-5-2.29-9.06-1.06a12.47,12.47,0,0,0-3.93,2.37A65.61,65.61,0,0,0,125,92.56a17.23,17.23,0,0,0,7.83-.62c3.8-1.21,5.71-5.47,5.71-5.47s-5.26-1.4-8.93.43a12,12,0,0,0-3.32,2.86,57.22,57.22,0,0,0,2.57-7.25A16.83,16.83,0,0,0,136.28,80.65Z"/><path class="cls-1" d="M200.15,83.17q-12.54,0-20.76-7.83-8.1-8.3-8.1-20.75a28,28,0,0,1,3.82-14.41,26.56,26.56,0,0,1,10.36-10.12,30.65,30.65,0,0,1,14.91-3.78,32.91,32.91,0,0,1,12.93,2.77,33.52,33.52,0,0,1,10.59,8.09L216.81,44q-7.51-7.87-16.66-7.87A17.61,17.61,0,0,0,187,41.47a18.32,18.32,0,0,0-5.3,13.12A18.89,18.89,0,0,0,184,64.21a15.75,15.75,0,0,0,6.85,6.58,18.56,18.56,0,0,0,9.58,2.53,19.06,19.06,0,0,0,8.1-1.79,26.5,26.5,0,0,0,8.33-6l6.86,7.32a48.28,48.28,0,0,1-5.88,5,29.14,29.14,0,0,1-5.49,3.09A30.51,30.51,0,0,1,200.15,83.17Z"/><path class="cls-1" d="M285.2,81.92H255.61V27.53H285.2V37.65H265.73V49.8H285.2v9.85H265.73V71.8H285.2Z"/><path class="cls-1" d="M346.23,83.17a32.41,32.41,0,0,1-15.18-3.54,29.13,29.13,0,0,1-10.36-10.36,30.66,30.66,0,0,1-3.78-14.68,26.6,26.6,0,0,1,7-18.69q8.34-9.62,22-9.62a33.63,33.63,0,0,1,13.16,2.53,30.89,30.89,0,0,1,10.36,7.6l-7.32,7.32A21.24,21.24,0,0,0,346,36.41a18.38,18.38,0,0,0-13.39,5.29,17.55,17.55,0,0,0-5.3,12.89A18.15,18.15,0,0,0,332.84,68a19.47,19.47,0,0,0,13.9,5.3,15.94,15.94,0,0,0,8.84-2.3,15.1,15.1,0,0,0,6.07-7H346V54.36h27.33v2.25a26.49,26.49,0,0,1-3.81,13.67,26.17,26.17,0,0,1-9.35,9.62A28.42,28.42,0,0,1,346.23,83.17Z"/><text class="cls-3" transform="translate(172.88 104.72)">CONSELING EDUC<tspan class="cls-4" x="104.11" y="0">A</tspan><tspan class="cls-5" x="111.21" y="0">TIONAL G</tspan><tspan class="cls-6" x="166.41" y="0">R</tspan><tspan class="cls-5" x="174" y="0">OUP</tspan></text></g></g></svg>